<svg xmlns="http://www.w3.org/2000/svg" viewBox="0 0 100 100" width="100%" height="100%">
  <defs>
    <!-- Core dynamic neon gradient -->
    <linearGradient id="orasaka-logo-grad" x1="0%" y1="0%" x2="100%" y2="100%">
      <stop offset="0%" stop-color="#a855f7" /> <!-- Violet -->
      <stop offset="50%" stop-color="#06b6d4" /> <!-- Cyan -->
      <stop offset="100%" stop-color="#10b981" /> <!-- Emerald -->
    </linearGradient>
    
    <!-- Subtle glow filter for the central core -->
    <filter id="core-glow" x="-20%" y="-20%" width="140%" height="140%">
      <feGaussianBlur stdDeviation="3" result="blur" />
      <feComposite in="SourceGraphic" in2="blur" operator="over" />
    </filter>
  </defs>

  <!-- Background grid alignment markers (very subtle) -->
  <circle cx="50" cy="50" r="45" fill="none" stroke="currentColor" stroke-opacity="0.03" stroke-width="0.5" stroke-dasharray="2 2" />
  <circle cx="50" cy="50" r="30" fill="none" stroke="currentColor" stroke-opacity="0.03" stroke-width="0.5" />
  
  <!-- Outer Decoupled Rings representing multi-tier architecture -->
  <!-- Ring 1 (Client/Gateway layer) -->
  <path d="M 50,10 A 40,40 0 0,1 90,50" fill="none" stroke="url(#orasaka-logo-grad)" stroke-width="4" stroke-linecap="round" />
  
  <!-- Ring 2 (Core stateless layer) -->
  <path d="M 90,50 A 40,40 0 0,1 50,90" fill="none" stroke="url(#orasaka-logo-grad)" stroke-width="4" stroke-linecap="round" stroke-dasharray="1 6 10 6" />
  
  <!-- Ring 3 (Caching/RAG layer) -->
  <path d="M 50,90 A 40,40 0 0,1 10,50" fill="none" stroke="url(#orasaka-logo-grad)" stroke-width="4" stroke-linecap="round" />
  
  <!-- Connecting bridge notches (Cyberpunk details) -->
  <path d="M 10,50 A 40,40 0 0,1 30,16" fill="none" stroke="url(#orasaka-logo-grad)" stroke-width="4" stroke-linecap="round" />
  
  <!-- Inner geometric tech shield -->
  <polygon points="50,22 74,36 74,64 50,78 26,64 26,36" fill="none" stroke="url(#orasaka-logo-grad)" stroke-width="1.5" stroke-opacity="0.5" />
  
  <!-- Active Central Core (The Stateless Database/AI Engine) -->
  <circle cx="50" cy="50" r="10" fill="url(#orasaka-logo-grad)" filter="url(#core-glow)" />
  
  <!-- Tech crosshairs/nodes -->
  <line x1="50" y1="5" x2="50" y2="15" stroke="url(#orasaka-logo-grad)" stroke-width="1.5" stroke-linecap="round" />
  <line x1="50" y1="85" x2="50" y2="95" stroke="url(#orasaka-logo-grad)" stroke-width="1.5" stroke-linecap="round" />
  <line x1="5" y1="50" x2="15" y2="50" stroke="url(#orasaka-logo-grad)" stroke-width="1.5" stroke-linecap="round" />
  <line x1="85" y1="50" x2="95" y2="50" stroke="url(#orasaka-logo-grad)" stroke-width="1.5" stroke-linecap="round" />
</svg>
